<svg width="32" height="32" viewBox="0 0 32 32" fill="none" xmlns="http://www.w3.org/2000/svg">
<path d="M32 0.49276C32 0.220645 31.7794 5.26196e-05 31.5073 5.26315e-05L31.5 0L13.0901 1.60944e-06C12.814 1.63358e-06 12.5901 0.223859 12.5901 0.500001L12.5901 5.79508C12.5901 6.07122 12.814 6.29508 13.0901 6.29508L20.0387 6.29508C20.4842 6.29508 20.7073 6.83365 20.3923 7.14863L12.7365 14.8044C12.6428 14.8981 12.5901 15.0253 12.5901 15.1579V18.9098C12.5901 19.186 12.814 19.4098 13.0901 19.4098L16.8344 19.4098C16.9669 19.4098 17.094 19.3572 17.1878 19.2635L24.8515 11.6041C25.1665 11.2893 25.7049 11.5124 25.7049 11.9578V18.9099C25.7049 19.186 25.9288 19.4099 26.2049 19.4099H31.5C31.7761 19.4099 32 19.186 32 18.9099V0.49276Z" fill="#0A3057"/>
<path d="M6.29508 25.205C6.29508 25.4811 6.51893 25.705 6.79508 25.705H31.5C31.7761 25.705 32 25.9288 32 26.205V31.5C32 31.7762 31.7761 32 31.5 32H0.499999C0.223857 32 0 31.7761 0 31.5V0.500039C0 0.223897 0.223857 3.95337e-05 0.499999 3.95337e-05H5.79508C6.07122 3.95337e-05 6.29508 0.223896 6.29508 0.500038L6.29508 25.205Z" fill="#0A3057"/>
</svg>
